<svg xmlns="http://www.w3.org/2000/svg" width="80" height="80" viewBox="0 0 80 80">
  <path fill="#000000" fill-rule="evenodd" d="M40.0000001,0 C37.5454012,1.01054888e-13 35.5555557,1.98984401 35.5555557,4.44444099 C35.5555557,6.89903797 37.5454012,8.88888198 40.0000001,8.88888198 C42.454599,8.88888198 44.4444445,6.89903797 44.4444445,4.44444099 C44.4444445,1.98984401 42.454599,2.02109777e-13 40.0000001,2.02109777e-13 L40.0000001,0 Z M14.9236446,10.4149252 C13.7223979,10.3969353 12.5650356,10.8660172 11.715289,11.7152798 C10.881459,12.5488186 10.4129937,13.6795143 10.4129937,14.8585218 C10.4129937,16.0375292 10.881459,17.1682249 11.715289,18.0017638 C12.5488285,18.8355932 13.6795251,19.3040581 14.8585335,19.3040581 C16.0375418,19.3040581 17.1682384,18.8355932 18.0017779,18.0017638 C18.835608,17.1682249 19.3040733,16.0375292 19.3040733,14.8585218 C19.3040733,13.6795143 18.835608,12.5488186 18.0017779,11.7152798 C17.1839432,10.8979331 16.0797745,10.431478 14.9236446,10.4149252 L14.9236446,10.4149252 Z M65.0763556,10.4149252 C63.9202257,10.431478 62.816057,10.8979331 61.9982223,11.7152798 C61.1643922,12.5488186 60.6959269,13.6795143 60.6959269,14.8585218 C60.6959269,16.0375292 61.1643922,17.1682249 61.9982223,18.0017638 C62.8317618,18.8355932 63.9624583,19.3040581 65.1414667,19.3040581 C66.3204751,19.3040581 67.4511716,18.8355932 68.2847111,18.0017638 C69.1185412,17.1682249 69.5870065,16.0375292 69.5870065,14.8585218 C69.5870065,13.6795143 69.1185412,12.5488186 68.2847111,11.7152798 C67.4349646,10.8660172 66.2776023,10.3969353 65.0763556,10.4149252 L65.0763556,10.4149252 Z M40.0000001,20.0017622 C28.9806223,20.0017622 20.0000001,28.9823775 20.0000001,40.00172 C20.0000001,51.0211781 28.9806223,60.0017933 40.0000001,60.0017933 C51.0193778,60.0017933 60,51.0211781 60,40.00172 C60,28.9823775 51.0193778,20.0017622 40.0000001,20.0017622 L40.0000001,20.0017622 Z M40.0000001,24.4462032 C48.6174223,24.4462032 55.5555556,31.3843311 55.5555556,40.00172 C55.5555556,48.6192244 48.6174223,55.5573523 40.0000001,55.5573523 C31.3825779,55.5573523 24.4444446,48.6192244 24.4444446,40.00172 C24.4444446,31.3843311 31.3825779,24.4462032 40.0000001,24.4462032 L40.0000001,24.4462032 Z M4.44444443,35.5555279 C1.98985597,35.5555279 1.47275308e-05,37.5453557 0,39.9999422 C-2.3575107e-05,41.1786967 0.46821864,42.3091805 1.30171621,43.142694 C2.13521378,43.9762076 3.26568908,44.4444721 4.44444443,44.4444721 C5.62319982,44.4444721 6.75367517,43.9762077 7.58717278,43.1426941 C8.42067038,42.3091805 8.88891262,41.1786967 8.88888905,39.9999422 C8.88887432,37.5453556 6.89903297,35.5555278 4.44444443,35.5555279 L4.44444443,35.5555279 Z M75.5555556,35.5555279 C73.1009671,35.5555279 71.1111259,37.5453557 71.1111111,39.9999422 C71.1110876,41.1786967 71.5793298,42.3091805 72.4128273,43.142694 C73.2463249,43.9762076 74.3768002,44.4444721 75.5555556,44.4444721 C76.7343109,44.4444721 77.8647862,43.9762076 78.6982838,43.142694 C79.5317814,42.3091805 80.0000236,41.1786967 80,39.9999422 C79.9999853,37.5453557 78.010144,35.5555279 75.5555556,35.5555279 L75.5555556,35.5555279 Z M14.7934224,60.6979706 C13.6373051,60.7144997 12.5331381,61.1809221 11.715289,61.9982362 C10.881459,62.8317751 10.4129937,63.9624708 10.4129937,65.1414782 C10.4129937,66.3204857 10.881459,67.4511814 11.715289,68.2847202 C12.5488285,69.1185497 13.6795251,69.5870146 14.8585335,69.5870146 C16.0375418,69.5870146 17.1682384,69.1185497 18.0017779,68.2847202 C18.835608,67.4511814 19.3040733,66.3204857 19.3040733,65.1414782 C19.3040733,63.9624708 18.835608,62.8317751 18.0017779,61.9982362 C17.1520166,61.1490062 15.9946561,60.6799572 14.7934224,60.6979706 L14.7934224,60.6979706 Z M65.2065778,60.6979706 C64.005344,60.6799572 62.8479836,61.1490062 61.9982223,61.9982362 C61.1643922,62.8317751 60.6959269,63.9624708 60.6959269,65.1414782 C60.6959269,66.3204857 61.1643922,67.4511814 61.9982223,68.2847202 C62.8317618,69.1185497 63.9624583,69.5870146 65.1414667,69.5870146 C66.3204751,69.5870146 67.4511716,69.1185497 68.2847111,68.2847202 C69.1185412,67.4511814 69.5870065,66.3204857 69.5870065,65.1414782 C69.5870065,63.9624708 69.1185412,62.8317751 68.2847111,61.9982362 C67.4668621,61.1809221 66.3626951,60.7144997 65.2065778,60.6979706 L65.2065778,60.6979706 Z M40.0000001,71.111118 C37.5454012,71.111118 35.5555557,73.100962 35.5555557,75.555559 C35.5555557,78.010156 37.5454012,80 40.0000001,80 C42.454599,80 44.4444445,78.010156 44.4444445,75.555559 C44.4444445,73.100962 42.454599,71.111118 40.0000001,71.111118 L40.0000001,71.111118 Z"/>
</svg>
