<svg xmlns="http://www.w3.org/2000/svg" width="80" height="80" viewBox="0 0 80 80">
  <path fill="#000000" fill-rule="evenodd" d="M40,0 C17.9364707,0 0,17.9364558 0,40.0000329 C0,62.0635442 17.9364707,80 40,80 C62.0635294,80 80,62.0635442 80,40.0000329 C80,17.9364558 62.0635294,0 40,0 L40,0 Z M40,4.70587848 C59.5202824,4.70587848 75.2941177,20.4797008 75.2941177,40.0000329 C75.2941177,59.5202992 59.5202824,75.2941215 40,75.2941215 C20.4797177,75.2941215 4.70588244,59.5202992 4.70588244,40.0000329 C4.70588244,20.4797008 20.4797177,4.70587848 40,4.70587848 L40,4.70587848 Z M40,9.41175696 C38.7005177,9.41185107 37.647153,10.4652149 37.6470589,11.7646962 L37.6470589,68.2353038 C37.647153,69.5347851 38.7005177,70.5881489 40,70.588243 C56.8655059,70.588243 70.5882353,56.8655249 70.5882353,40.0000329 C70.5882353,23.1344751 56.8655059,9.41175696 40,9.41175696 L40,9.41175696 Z M42.3529412,14.3547176 C47.6118589,14.833776 52.4118589,16.8614449 56.2885647,19.9778659 L42.3529412,26.8786602 L42.3529412,14.3547176 Z M59.8603294,23.4595572 C61.6755765,25.6131554 63.1382588,28.0716004 64.1691294,30.7481159 L42.3529412,41.551467 L42.3529412,32.1286324 L59.8603294,23.4595572 Z M65.4613647,35.3583709 C65.7343059,36.8625579 65.882353,38.4129284 65.882353,40.0000329 C65.882353,41.641161 65.7269647,43.2420067 65.4356706,44.7940996 L42.3529412,56.2243019 L42.3529412,46.8033215 L65.4613647,35.3583709 Z M63.3897412,51.056965 C59.5572706,59.0936643 51.6723765,64.7982243 42.3529412,65.6470706 L42.3529412,61.4742741 L63.3897412,51.056965 Z"/>
</svg>
