<svg xmlns="http://www.w3.org/2000/svg" width="80" height="80" viewBox="0 0 80 80">
  <path fill="#000000" fill-rule="evenodd" d="M2.35294109,0 C1.05345882,9.4115355e-05 9.41176472e-05,1.05343317 0,2.35288388 L0,58.8221628 C9.41176472e-05,60.1216135 1.05345882,61.1749526 2.35294109,61.1750467 L18.8235293,61.1750467 L18.8235293,77.6471161 C18.8236235,78.9465668 19.8769882,79.9999059 21.1764705,80 L77.6470588,80 C78.9465412,79.9999059 79.9999059,78.9465668 80,77.6471161 L80,21.1778372 C79.9999059,19.8783865 78.9465412,18.8250474 77.6470588,18.8249533 L61.1764706,18.8249533 L61.1764706,2.35288388 C61.1763764,1.05343317 60.1230117,9.4115355e-05 58.8235294,0 L2.35294109,0 Z M4.70588226,4.70576775 L56.4705882,4.70576775 L56.4705882,18.8249533 L21.1764705,18.8249533 C19.8769882,18.8250474 18.8236235,19.8783865 18.8235293,21.1778372 L18.8235293,56.4692789 L4.70588226,56.4692789 L4.70588226,4.70576775 Z M23.5294117,23.5307211 L75.2941176,23.5307211 L75.2941176,75.2942322 L23.5294117,75.2942322 L23.5294117,23.5307211 Z"/>
</svg>
