<svg xmlns="http://www.w3.org/2000/svg" width="80" height="80" viewBox="0 0 80 80">
  <path fill="#000000" fill-rule="evenodd" d="M21.1573392,0.000259171145 C19.8596729,0.0195180383 18.8230235,1.08653557 18.8412561,2.38419074 L18.8412561,18.8425436 L2.38445523,18.8425436 C1.53661046,18.8305532 0.747987752,19.275996 0.320566179,20.0083033 C-0.106855393,20.7406105 -0.106855393,21.6463258 0.320566179,22.3786331 C0.747987752,23.1109403 1.53661046,23.5563831 2.38445523,23.5443927 L18.8412561,23.5443927 L18.8412561,58.8081957 C18.8413859,60.1065217 19.8938757,61.1589905 21.1922276,61.1591203 L56.4568008,61.1591203 L56.4568008,77.6155924 C56.4448102,78.4634202 56.8902619,79.2520272 57.6225838,79.6794402 C58.3549057,80.1068533 59.2606391,80.1068533 59.992961,79.6794402 C60.7252829,79.2520272 61.1707346,78.4634202 61.1587439,77.6155924 L61.1587439,61.1591203 L77.6155448,61.1591203 C78.4633895,61.1711107 79.2520122,60.7256679 79.6794338,59.9933606 C80.1068554,59.2610534 80.1068554,58.3553381 79.6794338,57.6230308 C79.2520122,56.8907235 78.4633895,56.4452807 77.6155448,56.4572711 L61.1587439,56.4572711 L61.1587439,21.1934682 C61.1586141,19.8951421 60.1061243,18.8426734 58.8077724,18.8425436 L23.5431992,18.8425436 L23.5431992,2.38419074 C23.5521251,1.74891112 23.303564,1.13706136 22.854123,0.687983674 C22.4046821,0.23890599 21.7926243,-0.00916753868 21.1573392,0.000259171145 L21.1573392,0.000259171145 Z M23.5431992,23.5443927 L56.4568008,23.5443927 L56.4568008,56.4572711 L23.5431992,56.4572711 L23.5431992,23.5443927 L23.5431992,23.5443927 Z"/>
</svg>
