<svg xmlns="http://www.w3.org/2000/svg" width="80" height="80" viewBox="0 0 80 80">
  <path fill="#000000" fill-rule="evenodd" d="M39.9999999,0 C25.7334587,0 14.1176469,11.6158102 14.1176469,25.8823286 C14.1176469,27.5749388 14.2872469,29.2278407 14.5992469,30.8308416 C5.96696453,35.0322588 0,43.8930222 0,54.1176714 C0,68.3841992 11.6158116,80 25.8823528,80 C31.0874352,80 35.9359999,78.4474368 39.9999999,75.790404 C44.0639999,78.4474368 48.9125646,80 54.117647,80 C68.3841882,80 80,68.3841992 80,54.1176714 C80,43.8930222 74.0330353,35.0322494 65.4007529,30.8308416 C65.7127529,29.2278313 65.8823529,27.5749388 65.8823529,25.8823286 C65.8823529,11.6158102 54.2665411,0 39.9999999,0 L39.9999999,0 Z M39.9999999,4.70587792 C51.7232941,4.70587792 61.1764705,14.1590455 61.1764705,25.8823286 C61.1764705,26.9948922 61.0908235,28.08515 60.9264941,29.1506549 C58.7552941,28.5574319 56.4737882,28.2352675 54.117647,28.2352675 C48.9126588,28.2352675 44.0639999,29.7860426 39.9999999,32.4429812 C35.9359999,29.7860426 31.0873411,28.2352675 25.8823528,28.2352675 C23.5262116,28.2352675 21.2447057,28.5574319 19.0735057,29.1506549 C18.9093646,28.08515 18.8235293,26.9948922 18.8235293,25.8823286 C18.8235293,14.1590455 28.2767058,4.70587792 39.9999999,4.70587792 L39.9999999,4.70587792 Z M25.8823528,32.9411455 C29.5946352,32.9411455 33.0777411,33.8910834 36.1066352,35.558743 C33.4997646,38.0896394 31.4246587,41.1609777 30.0607058,44.5918451 C25.6398116,42.2454002 22.160094,38.3806509 20.3051293,33.6837424 C22.0819763,33.2023311 23.9500234,32.9411549 25.8823528,32.9411549 L25.8823528,32.9411455 Z M54.117647,32.9411455 C56.0499764,32.9411455 57.9180235,33.2023311 59.6948705,33.683733 C57.8399058,38.3806509 54.3601882,42.2454002 49.939294,44.5918451 C48.5753411,41.1609777 46.5002352,38.0896394 43.8933646,35.558743 C46.9222587,33.8910834 50.4053646,32.9411455 54.117647,32.9411455 L54.117647,32.9411455 Z M15.9430587,35.4061784 C18.3370351,41.4280834 22.9231999,46.3493023 28.716894,49.1691584 C28.4050822,50.771604 28.235294,52.425626 28.235294,54.1176714 C28.235294,61.3893822 31.2581646,67.9673525 36.1066352,72.6746422 C33.0777411,74.3423112 29.5946352,75.2941221 25.8823528,75.2941221 C14.1590587,75.2941221 4.70588218,65.8409545 4.70588218,54.1176714 C4.70588218,45.9909967 9.25054101,38.9583445 15.9430587,35.4061879 L15.9430587,35.4061784 Z M64.0569411,35.4061784 C70.7494588,38.9583445 75.2941176,45.9909967 75.2941176,54.1176714 C75.2941176,65.8409545 65.8409411,75.2941221 54.117647,75.2941221 C50.4053646,75.2941221 46.9222587,74.3423112 43.8933646,72.6746422 C48.7418352,67.9673525 51.7647058,61.3893822 51.7647058,54.1176714 C51.7647058,52.425626 51.5949176,50.771604 51.2831058,49.1691584 C57.0767999,46.3493023 61.6629647,41.4280834 64.0569411,35.4061879 L64.0569411,35.4061784 Z M33.1911528,50.8474627 C35.3623528,51.4406857 37.6438587,51.7647325 39.9999999,51.7647325 C42.3561411,51.7647325 44.637647,51.4406857 46.808847,50.8474627 C46.9729882,51.9130617 47.0588235,53.0050136 47.0588235,54.1176714 C47.0588235,60.4085831 44.3343058,66.0418955 39.9999999,69.9153977 C35.665694,66.0418955 32.9411764,60.4085831 32.9411764,54.1176714 C32.9411764,53.0050136 33.0268234,51.9130617 33.1911528,50.8474627 L33.1911528,50.8474627 Z"/>
</svg>
