<svg xmlns="http://www.w3.org/2000/svg" width="80" height="80" viewBox="0 0 80 80">
  <path fill="#000000" fill-rule="evenodd" d="M3.07724301,0.000308842441 C1.37799027,0.000478645484 0.000516223322,1.37716831 0.000346323532,3.07545344 L0.000346323532,27.6766102 C-0.0153467405,28.7856178 0.567650062,29.817161 1.52609585,30.3762419 C2.48454164,30.9353227 3.66994438,30.9353227 4.62839017,30.3762419 C5.58683596,29.817161 6.16983277,28.7856178 6.1541397,27.6766102 L6.1541397,6.15059803 L27.6924165,6.15059803 C28.802056,6.16628216 29.834187,5.58361734 30.3935863,4.62571732 C30.9529857,3.6678173 30.9529857,2.48308957 30.3935863,1.52518956 C29.834187,0.567289538 28.802056,-0.0153752854 27.6924165,0.000308842441 L3.07724301,0.000308842441 L3.07724301,0.000308842441 Z M52.30759,0.000308842441 C51.1979506,-0.0153752854 50.1658196,0.567289538 49.6064202,1.52518956 C49.0470208,2.48308957 49.0470208,3.6678173 49.6064202,4.62571732 C50.1658196,5.58361734 51.1979506,6.16628216 52.30759,6.15059803 L73.8458669,6.15059803 L73.8458669,27.6766102 C73.8301738,28.7856178 74.4131706,29.817161 75.3716164,30.3762419 C76.3300622,30.9353227 77.5154649,30.9353227 78.4739107,30.3762419 C79.4323565,29.817161 80.0153533,28.7856178 79.9996602,27.6766102 L79.9996602,3.07545344 C79.9994903,1.37716831 78.6220163,0.000478645484 76.9227635,0.000308842441 L52.30759,0.000308842441 L52.30759,0.000308842441 Z M21.5386231,24.6014656 C19.8393704,24.6016354 18.4618964,25.9783251 18.4617265,27.6766102 L18.4617265,52.2777547 C18.4618964,53.9760398 19.8393704,55.3527294 21.5386231,55.3528993 L58.4613834,55.3528993 C60.1606362,55.3527294 61.5381102,53.9760398 61.5382801,52.2777547 L61.5382801,27.6766102 C61.5381102,25.9783251 60.1606362,24.6016354 58.4613834,24.6014656 L21.5386231,24.6014656 L21.5386231,24.6014656 Z M24.6155198,30.7517548 L55.3844867,30.7517548 L55.3844867,49.2026101 L24.6155198,49.2026101 L24.6155198,30.7517548 L24.6155198,30.7517548 Z M3.03145879,49.2026101 C1.33217665,49.2278638 -0.0248892163,50.6250748 0.000346323532,52.3233898 L0.000346323532,76.9245466 C0.000516223322,78.6228317 1.37799027,79.9995214 3.07724301,79.9996912 L27.6924165,79.9996912 C28.802056,80.0153753 29.834187,79.4327105 30.3935863,78.4748104 C30.9529857,77.5169104 30.9529857,76.3321827 30.3935863,75.3742827 C29.834187,74.4163827 28.802056,73.8337178 27.6924165,73.849402 L6.1541397,73.849402 L6.1541397,52.3233898 C6.16649427,51.4919623 5.84146324,50.6909666 5.25314381,50.1030054 C4.66482439,49.5150441 3.86335948,49.1902298 3.03145879,49.2026101 L3.03145879,49.2026101 Z M76.8769793,49.2026101 C75.1776972,49.2278638 73.8206313,50.6250748 73.8458669,52.3233898 L73.8458669,73.849402 L52.30759,73.849402 C51.1979506,73.8337178 50.1658196,74.4163827 49.6064202,75.3742827 C49.0470208,76.3321827 49.0470208,77.5169104 49.6064202,78.4748104 C50.1658196,79.4327105 51.1979506,80.0153753 52.30759,79.9996912 L76.9227635,79.9996912 C78.6220163,79.9995214 79.9994903,78.6228317 79.9996602,76.9245466 L79.9996602,52.3233898 C80.0120148,51.4919623 79.6869838,50.6909666 79.0986643,50.1030054 C78.5103449,49.5150441 77.70888,49.1902298 76.8769793,49.2026101 L76.8769793,49.2026101 Z"/>
</svg>
