<svg xmlns="http://www.w3.org/2000/svg" width="80" height="68" viewBox="0 0 80 68">
  <path fill="#000000" fill-rule="evenodd" d="M4.70588235,9.37727034 C4.70588235,6.78799683 6.81108,4.68965517 9.40890706,4.68965517 L30.5917588,4.68965517 C30.9245271,4.68965517 31.5059929,5.08288159 31.6306376,5.39341883 L34.5882965,12.7620688 C35.4287235,14.8558943 37.7351965,16.4137931 39.9999059,16.4137931 L70.5879388,16.4137931 C73.1875082,16.4137931 75.2941176,18.5136894 75.2941176,21.1067006 L75.2941176,58.6174374 C75.2941176,61.2073956 73.1861541,63.3103448 70.5974118,63.3103448 L9.40258824,63.3103448 C6.80563294,63.3103448 4.70588235,61.2175628 4.70588235,58.6227297 L4.70588235,9.37727034 L4.70588235,9.37727034 Z M0,9.37727034 L0,58.6227297 C0,63.8074518 4.20650824,68 9.40258824,68 L70.5974118,68 C75.7862729,68 80,63.7962939 80,58.6174374 L80,21.1067006 C80,15.9239399 75.7867718,11.7241379 70.5879388,11.7241379 L39.9999059,11.7241379 C39.6604129,11.7241379 39.0837318,11.3346199 38.9575976,11.0203743 L35.9999388,3.65172428 C35.1613894,1.56257786 32.8507976,0 30.5917588,0 L9.40890706,0 C4.21188941,0 0,4.19817462 0,9.37727034 L0,9.37727034 Z"/>
</svg>
