<svg xmlns="http://www.w3.org/2000/svg" width="80" height="63" viewBox="0 0 80 63">
  <path fill="#000000" fill-rule="evenodd" d="M70.535084,63 L18.4157094,63 C13.4419097,63 8.45250759,59.2378825 7.06511079,54.4408069 L0.366919607,31.2810821 C-1.16622517,25.9800648 2.26005532,21.3962264 7.75832843,21.3962264 L8.95079344,21.3962264 L8.95079344,9.50178362 C8.95079344,4.25385509 13.188733,0 18.417276,0 L37.3646181,0 C39.5237111,0 41.8973893,1.37763883 42.9658983,3.25467509 L45.3608143,7.46179726 C45.5838283,7.85356336 46.3869259,8.32075472 46.8333352,8.32075472 L70.5188363,8.32075472 C75.7516849,8.32075472 80,12.580621 80,17.824552 L80,53.4962028 C80,58.3314967 76.404903,62.3231922 71.7511362,62.9223186 C71.4027156,62.9677832 71.0438745,62.993738 70.6754998,62.9989991 C70.6286239,62.9996588 70.5818936,63 70.535084,63 L70.535084,63 L70.535084,63 Z M75.2633862,43.9071629 L75.2633862,17.824552 C75.2633862,15.2077495 73.1368906,13.0754717 70.5188363,13.0754717 L46.8333352,13.0754717 C44.6882412,13.0754717 42.3151551,11.6949598 41.2482814,9.8207966 L38.8533654,5.61367443 C38.6296255,5.22063408 37.8268476,4.75471698 37.3646181,4.75471698 L18.417276,4.75471698 C15.8046226,4.75471698 13.6874072,6.87988291 13.6874072,9.50178362 L13.6874072,21.3962264 L59.877703,21.3962264 C64.8515028,21.3962264 69.8409049,25.1583439 71.2283017,29.9554195 L75.2633862,43.9071629 L75.2633862,43.9071629 L75.2633862,43.9071629 Z M4.91570888,29.9554195 C4.26202184,27.6952232 5.41632396,26.1509434 7.75832843,26.1509434 L59.877703,26.1509434 C62.7439417,26.1509434 65.8796002,28.5152977 66.6795124,31.2810821 L73.3777036,54.4408069 C74.0313906,56.7010032 72.8770885,58.245283 70.535084,58.245283 L18.4157094,58.245283 C15.5494707,58.245283 12.4138123,55.8809287 11.6139001,53.1151443 L4.91570888,29.9554195 L4.91570888,29.9554195 Z"/>
</svg>
