<svg xmlns="http://www.w3.org/2000/svg" width="80" height="80" viewBox="0 0 80 80">
  <path fill="#000000" fill-rule="evenodd" d="M2.35215161,3.96106539e-16 C1.05314795,0.00012989794 0.000129880885,1.05328624 0,2.35246047 L0,77.6312145 C0.000129880885,78.9303887 1.05314795,79.9835451 2.35215161,79.983675 L77.3711112,79.983675 C78.1003134,80.0699883 78.8279881,79.8108 79.3384812,79.2829234 C79.8489743,78.7550468 80.0837224,78.0190393 79.9731554,77.2930248 L79.9731554,2.35246047 C79.9730256,1.05328624 78.9200075,0.00012989794 77.6210038,-1.0658141e-13 L2.35215161,-1.0658141e-13 L2.35215161,3.96106539e-16 Z M4.70430285,4.70492095 L75.2688522,4.70492095 L75.2688522,43.7225669 L60.4668562,28.9187025 C60.0169777,28.4695349 59.4044907,28.221582 58.768885,28.2313136 C58.1527256,28.2406475 57.5648306,28.4914193 57.1315993,28.929712 L37.9450045,48.3485393 L22.4741506,38.0345057 C22.0797524,37.7722353 21.6153815,37.6351391 21.1417979,37.6411555 C20.5278562,37.6480603 19.9409435,37.8947567 19.5063939,38.3285632 L4.70430285,53.1325029 L4.70430285,4.70492095 L4.70430285,4.70492095 Z M21.1693651,11.7623024 C16.0010294,11.7623024 11.7607586,16.0029417 11.7607586,21.1721443 C11.7607586,26.3410645 16.0010294,30.5819862 21.1693651,30.5819862 C26.3377949,30.5819862 30.5779715,26.3410645 30.5779715,21.1721443 C30.5779715,16.0029417 26.3377949,11.7623024 21.1693651,11.7623024 L21.1693651,11.7623024 Z M21.1693651,16.4672233 C23.7954012,16.4672233 25.8736683,18.5456692 25.8736683,21.1721443 C25.8736683,23.7984311 23.7954012,25.8770652 21.1693651,25.8770652 C18.543423,25.8770652 16.4650619,23.7984311 16.4650619,21.1721443 C16.4650619,18.5457633 18.543423,16.4672233 21.1693651,16.4672233 L21.1693651,16.4672233 Z M58.8130113,33.9194689 L75.2688522,50.3775835 L75.2688522,73.2350305 L41.9307724,51.0079488 L58.8130113,33.9194689 L58.8130113,33.9194689 Z M21.4689351,43.0204986 L36.5741705,53.0920406 C36.7838906,53.2970066 37.030078,53.460951 37.3000445,53.5754242 L69.8515648,75.278754 L4.70430285,75.278754 L4.70430285,59.7874254 L21.4689351,43.0204986 L21.4689351,43.0204986 Z"/>
</svg>
