<svg xmlns="http://www.w3.org/2000/svg" width="80" height="80" viewBox="0 0 80 80">
  <path fill="#000000" fill-rule="evenodd" d="M29.3670291,3.25159124e-15 C13.1748627,3.25159124e-15 0,13.174778 0,29.3670422 C0,45.5592703 13.1748627,58.7340483 29.3670291,58.7340483 C35.0125467,58.7340483 40.2892145,57.1280777 44.7706231,54.3554675 L69.7537419,79.3385976 C70.6359542,80.2204675 72.0659394,80.2204675 72.9481517,79.3385976 L79.3385979,72.9498654 C80.2204674,72.0676526 80.2204674,70.6376668 79.3385979,69.7554541 L54.3537623,44.7706071 C57.1270942,40.2886543 58.734058,35.0133757 58.734058,29.3670422 C58.734058,13.174778 45.559286,-9.9475983e-14 29.3670291,-9.9475983e-14 L29.3670291,3.25159124e-15 Z M29.3670291,4.5180065 C43.1175756,4.5180065 54.2160535,15.6164895 54.2160535,29.3670422 C54.2160535,43.1175588 43.1175756,54.2160418 29.3670291,54.2160418 C15.616573,54.2160418 4.51800471,43.1175588 4.51800471,29.3670422 C4.51800471,15.6164895 15.616573,4.5180065 29.3670291,4.5180065 L29.3670291,4.5180065 Z M29.3670291,6.77700974 C28.5523518,6.76548817 27.7945798,7.19351414 27.3838788,7.89718812 C26.9731778,8.60086211 26.9731778,9.47116388 27.3838788,10.1748379 C27.7945798,10.8785118 28.5523518,11.3065378 29.3670291,11.2950162 C39.37468,11.2950162 47.4390469,19.3593868 47.4390469,29.3670422 C47.4275253,30.1817199 47.8555511,30.9394923 48.5592247,31.3501934 C49.2628984,31.7608946 50.1331998,31.7608946 50.8368734,31.3501934 C51.5405471,30.9394923 51.9685729,30.1817199 51.9570513,29.3670422 C51.9570513,16.9176753 41.8163904,6.77700974 29.3670291,6.77700974 L29.3670291,6.77700974 Z M52.1829515,48.9886179 L74.5453567,71.3526597 L71.3509468,74.547071 L48.988632,52.1846557 L52.1829515,48.9886179 L52.1829515,48.9886179 Z"/>
</svg>
