<svg xmlns="http://www.w3.org/2000/svg" width="62" height="80" viewBox="0 0 62 80">
  <path fill="#000000" fill-rule="evenodd" d="M50.1147345,0.00023630913 C49.2599187,-0.0117643168 48.4648119,0.434058534 48.0338761,1.16699057 C47.6029402,1.89992261 47.6029402,2.80641065 48.0338761,3.53934269 C48.4648119,4.27227473 49.2599187,4.71809758 50.1147345,4.70609695 L52.4850358,4.70609695 L52.4850358,75.293903 L50.1147345,75.293903 C49.2599187,75.2819024 48.4648119,75.7277253 48.0338761,76.4606573 C47.6029402,77.1935894 47.6029402,78.1000774 48.0338761,78.8330094 C48.4648119,79.5659415 49.2599187,80.0117643 50.1147345,79.9997637 L59.5959397,79.9997637 C60.4507555,80.0117643 61.2458623,79.5659415 61.6767981,78.8330094 C62.107734,78.1000774 62.107734,77.1935894 61.6767981,76.4606573 C61.2458623,75.7277253 60.4507555,75.2819024 59.5959397,75.293903 L57.2256384,75.293903 L57.2256384,4.70609695 L59.5959397,4.70609695 C60.4507555,4.71809758 61.2458623,4.27227473 61.6767981,3.53934269 C62.107734,2.80641065 62.107734,1.89992261 61.6767981,1.16699057 C61.2458623,0.434058534 60.4507555,-0.0117643168 59.5959397,0.00023630913 L50.1147345,0.00023630913 L50.1147345,0.00023630913 Z M21.7877377,9.39727531 C21.7087771,9.3933517 21.6296682,9.3933517 21.5507075,9.39727531 C20.5827905,9.44628879 19.7424131,10.0752513 19.4286242,10.9855033 L0.127261631,67.1212349 C-0.146494628,67.9169346 0.0282408357,68.7971705 0.58563148,69.4302888 C1.14302212,70.0634072 1.99836344,70.3531953 2.82938133,70.1904674 C3.66039922,70.0277395 4.3408071,69.4372247 4.614242,68.6414161 L11.7714132,47.8253239 L31.2875261,47.8253239 L38.3854407,68.9612264 C38.8029979,70.1896497 40.1427628,70.851471 41.3817318,70.4413437 C42.6207008,70.0312165 43.292167,68.7036315 42.8834193,67.4722921 L23.9210089,11.0020679 C23.6118746,10.0809696 22.7646099,9.44288886 21.7877377,9.39548708 L21.7877377,9.39727531 Z M21.6451404,19.110454 L29.7079573,43.1213456 L13.389855,43.1213456 L21.6451404,19.110454 L21.6451404,19.110454 Z"/>
</svg>
