<svg xmlns="http://www.w3.org/2000/svg" width="80" height="73" viewBox="0 0 80 73">
  <path fill="#000000" fill-rule="evenodd" d="M43.7826816,0 C28.1923024,1.30615668e-18 14.5870179,10.126634 9.59776042,24.4697309 L8.94739331,24.2651345 L2.8908496,22.301009 C1.45223755,21.8387848 -0.0979124503,22.9943453 0.00484555293,24.5106502 C0.0282587689,24.8720493 0.113782044,25.273713 0.289381163,25.6154709 L5.81750159,36.4181614 C6.37161437,37.5023587 7.71039506,37.918426 8.78480153,37.3593049 L19.4752109,31.7533632 C19.8147025,31.5752825 20.1011892,31.2970314 20.3288177,31.0168161 C21.2822559,29.8383408 20.7105832,28.0009013 19.2719712,27.5386771 L13.2967233,25.6154709 C17.7883264,12.894437 29.9228499,3.92825112 43.7826816,3.92825112 C61.6092441,3.92825112 76.0977973,18.5426547 76.0977973,36.5 C76.0964966,37.0866188 76.0870663,37.6807668 76.0571494,38.2595291 C76.0012178,39.3437265 76.8105997,40.2491883 77.8863069,40.3054933 C77.920126,40.3068027 77.9731309,40.3054933 78.0082507,40.3054933 C79.039733,40.3054933 79.9047212,39.5129686 79.9593521,38.4641256 C79.9918704,37.818583 79.9986993,37.1533991 80,36.5 C80,16.3755695 63.7606585,-1.13166378e-16 43.7826816,0 L43.7826816,0 Z M76.7481645,42.8834081 C75.9955271,43.0034646 75.3580048,43.5669238 75.1628946,44.3565022 C74.6712171,46.3533632 73.9863805,48.3050493 73.1304974,50.1670404 C72.6778419,51.1530314 73.087248,52.3301973 74.0654001,52.7858744 C74.3307499,52.9089596 74.6039041,52.9495516 74.878359,52.9495516 C75.6158753,52.9495516 76.3377828,52.5213722 76.6668686,51.8038117 C77.6268104,49.7152915 78.3929429,47.5367489 78.9431534,45.2976457 C79.2033003,44.243565 78.564965,43.1849013 77.5204754,42.9243274 C77.2564263,42.8588565 76.9990436,42.8433884 76.7481645,42.8834081 L76.7481645,42.8834081 Z M71.6671714,54.6681614 C71.0408627,54.6491985 70.4347257,54.9357735 70.0412536,55.4865471 C68.8471796,57.1586726 67.4973427,58.7371749 66.0171071,60.1513453 C65.2353659,60.8990224 65.1943928,62.1468969 65.9358113,62.9338565 C66.3195279,63.3410852 66.8433986,63.5476457 67.3584893,63.5476457 C67.8410617,63.5476457 68.3226586,63.3770942 68.6998715,63.0156951 C70.3570069,61.4326099 71.8759393,59.6478744 73.2117933,57.7780269 C73.8413487,56.8967892 73.6387593,55.6701928 72.7646659,55.036435 C72.4378564,54.7987758 72.0429561,54.679539 71.6671714,54.6681614 L71.6671714,54.6681614 Z M62.2774963,63.6294843 C61.9017259,63.6203001 61.520469,63.7373475 61.1800018,63.9568386 C59.4604311,65.0672242 57.6257455,66.0194978 55.7331772,66.7802691 C54.7316119,67.1835695 54.2363573,68.3090135 54.6356827,69.3172646 C54.9400545,70.0858924 55.6896026,70.544843 56.4648402,70.544843 C56.7067768,70.544843 56.9597696,70.5163632 57.1965032,70.4220852 C59.3193015,69.5683453 61.3660068,68.5152466 63.2936949,67.2713004 C64.2003066,66.6846816 64.486143,65.4436816 63.903414,64.5297085 C63.5408344,63.9584753 62.903779,63.6447901 62.2774963,63.6294843 L62.2774963,63.6294843 Z M50.2457047,68.4579596 C50.1165913,68.4563045 50.0112474,68.4733453 49.8798732,68.4988789 C47.884547,68.8825381 45.8339395,69.0717489 43.7826816,69.0717489 C42.7056737,69.0717489 41.8315803,69.9503677 41.8315803,71.0358744 C41.8315803,72.1213812 42.7056737,73 43.7826816,73 C46.0784775,73 48.3755741,72.7747803 50.6115362,72.3452915 C51.6703339,72.1410224 52.3577719,71.1196771 52.1561581,70.0538117 C51.9786079,69.1200336 51.1494965,68.4695427 50.2457047,68.4579596 L50.2457047,68.4579596 Z"/>
</svg>
